<?xml version="1.0" encoding="utf-8"?>
<!-- Generator: Adobe Illustrator 24.2.1, SVG Export Plug-In . SVG Version: 6.00 Build 0)  -->
<svg version="1.1" id="Layer_1" xmlns="http://www.w3.org/2000/svg" xmlns:xlink="http://www.w3.org/1999/xlink" x="0px" y="0px"
	 viewBox="0 0 115.6 191.7" style="enable-background:new 0 0 115.6 191.7;" xml:space="preserve">
<style type="text/css">
	.st0{fill:#050505;}
</style>
<g>
	<path class="st0" d="M35.6,22.2c-5.5,4.5-11.5,8.7-12.2,17c0.7-0.1,1-0.1,1.1-0.2c1.7-1.4,0.8-5.7,4.2-4.5c0.7,0.2-1.3,4.3-2.3,6.5
		c-0.3,3.3-1.2,6.6,1.2,9.7c1.3,1.7-0.1,4.1,0.8,6.1c0.7,1.6,1.5,3.2,2.2,4.9c2.6,0.3,0.7-2.3,1.9-3c-0.4-3.7,0.7-7,2.7-10
		c0.5-0.8,0.5-2.5,2.2-1.4c1.2,0.8,0.5,1.4,0,2.3c-0.9,1.7-1.4,3.5-2.1,5.3c-0.2,1.1-1.3,2.7,1.1,2.8c0.6-1.2,1.6-1,2.5-0.6
		c0.7,0.3,0.4,1.1,0.1,1.7c-1.1,1.8-4.4,2.6-3.2,5.5c1.2,3.2,3,6.1,6.5,8.3c-1-3.5-2.7-6.6-1.4-10.6c2.3,4.7,3.3,9.8,8.1,12.5
		c1-1.4-1.2-2.2-0.6-3.6c-0.3-1.8-1.7-3.8,0.9-5.1c0.8,3.7,3,6.9,5.2,9.7c2.9,3.6,9.6,3.9,13.5-1.2c1.7-2.3,2.9-5,4.4-7.5
		c2.3,0.9,1.3,2.6,0.9,4.1c-0.2,0.9-0.3,1.7-0.6,3c5.2-2.3,5.5-7.7,8.5-12.5c-0.2,3.9,0.7,6.8-1.3,9.9c3.7-2.2,4.2-3.2,5.8-6.4
		c2-4-3.4-4.4-3.3-7.4c1.3-2,2.8,0.6,4.1,0c0.5-3.8-2.4-6.7-1.9-10.3c0-0.1,0.2-0.2,0.7-0.5c2.5,3.2,3.9,6.8,3.9,10.9
		c1.4,1-1,3.7,1.9,4c0.7-1.6,1.5-3.2,2.2-4.9c0.2-3.5,0.8-7,2.8-10c-1.1-4.5-1.1-9.2-5-14c5.3,0.7,3.5,5.8,6.7,6.7
		c1.3-5-2.5-7.9-4.5-11.5c0.2-0.6,0.2-1.3,0.4-2c0.5-0.8,1.2-1.4,2.2-1c1.8,2.4,4.5,4.3,4.2,7.8c1.4,0.9-1,3.8,1.9,4
		c-0.1-2.5,1.9-4.9-0.2-7.6c1.9,0.5,2.3,1.4,2.2,2.7c0.7,2.1,0.7,4.1,0,6.2c-1,3.8-3,7.1-5.8,9.9c-1.3,2.3-0.6,3.9,1.7,4.9
		c0.1,0.3,0.2,0.6,0.2,0.9c0.7,1.7,0.7,3.5,0,5.2c-0.2,1,0.5,2.3-0.9,2.9c-1.3,2.2-1.8,4.8-3,7c-7.7,0.4-12.3,7-19.2,9.3
		c1.7,1.1,5.4-0.3,5,2.3c-0.4,2.9-1.4,6.5-5.5,7.1c-1.7,0.7-3.4,0.7-5.2,0c-0.6,0.3-1.2,0.7-1.7,1c-1.1,1.9-0.7,3.9-0.3,5.9
		c0.6,1.7,1.2,3.3,1.6,5c2.4,9.5,8.8,13.7,18.1,14.9c8.7,1.1,13.7,9,12.2,17.9c-0.4,2.2-0.2,4.6-0.3,6.9c-1,2.9,0.4,6.1-0.8,9
		c0.5,3.5-2.2,6-2.9,9c-1.2,5.8-2.1,11.7-3,17.5c-0.2,1.6,0.1,4-1.9,3.8c-2.3-0.2-0.8-2.6-1.1-4.1c-0.6-3.6,1.3-7,1.1-10.6
		c0.9-2.3-0.3-4.8,0.8-7c0.1-1,0.1-1.9,0.2-2.9c0.8-1.6-0.2-3.5,0.8-5c0-1.8,0-3.6,0-5.4c-2,4.7-3.7,9.4-4.1,14.5
		c-1,3.6,0.4,7.4-0.8,11c0,2.3-0.1,4.6,0,6.9c0,1.4-0.5,2.2-2,1.8c-1.2-1.8,0.1-3.9-0.8-5.8c-0.1-1-0.1-1.9-0.2-2.9
		c-1.1-1.9,0.1-4.1-0.8-6c-0.1-1.6-0.1-3.3-0.2-4.9c-1.1-1.9,0.1-4.1-0.8-6c-0.1-1-0.1-1.9-0.2-2.9c-2.6-1-5.2-1-7.9,0
		c-0.4,2.3-0.8,4.6-1.2,6.9c-0.8,1.6,0.2,3.5-0.8,5c-0.1,1.6-0.1,3.3-0.2,4.9c-0.9,1.9,0.3,4.1-0.8,6c-1.2,1.7,2.3,5.1-2,5.7
		c-1.2-1.8,0.1-3.9-0.8-5.8c-0.1-2.6-0.1-5.2-0.2-7.9c-1.2-3.3,0.2-6.7-0.8-10c-0.7-2.9-1.4-5.9-2.2-8.8c-0.4-1.3-1.1-1.5-1.9-0.2
		c1.1,2.2-0.1,4.8,0.8,7c0.6,3.9,1.6,7.8,1.2,11.8c1.1,1.9-0.1,4.1,0.8,6c0.1,1.6,0.1,3.3,0.2,4.9c0.5,1.7,1.5,3.7-1.9,3.1
		c-1.8-12.8-5.5-25-9.2-37.3c-1.1-3.6-2.8-7.1-3.9-10.7c-1.2-3.9-0.3-7.2,1.3-10.6c0.5-2,0.5-3.9,0-5.9c-0.1-1.6-0.1-3.3-0.2-4.9
		c-0.7-3.7-0.7-7.4,0-11.1c0.2-1.3,0.2-2.6,0.5-3.8c0.9-4-1-6.3-5.1-6c-6.2,0.4-9.1-2.5-9.1-8.9c0.3-0.9,2.6,0,1.7-1.9
		c-5.9-3-11.3-7-17.8-8.9c-0.7-2-0.7-4.2-1.8-6.1c-0.5-0.9-1.5-1.7-1.2-2.9c-0.7-1.7-0.7-3.5,0-5.2c0-0.3,0.1-0.6,0.2-0.9
		c2.6,0,1.5,2,1.8,3.2c0-0.1,0-0.4,0-0.4c-0.8-2.6,1.3-5.2-0.1-7.7c-3.1-2.6-5.4-5.7-5.8-9.9C17,36,17,34,17.7,31.9
		c0.3-0.9-0.6-2.3,1.5-3c-0.7,2.9-0.6,5.5,0.6,8c1.2,0.6,1.3-0.3,1.4-1.1c0.2-1.3-0.3-2.7,0.5-3.9c0.2-1-0.5-2.3,0.9-2.9
		c1.3-1.1,2.2-2.6,3-4l0,0c2-0.1,2.4-2.5,4.1-3c3.6-1.9,6.5-5.1,10.7-5.9c1.1-0.4,1.4,0.2,1.1,1.2c-0.7,0.6-1.3,1.2-2,1.7
		C39.7,21.8,35.9,19.9,35.6,22.2z"/>
</g>
</svg>
